<svg width="366" height="365" viewBox="0 0 366 365" fill="none" xmlns="http://www.w3.org/2000/svg">
<path d="M178.205 110.193C178.938 109.423 179.811 108.823 180.778 108.43C181.745 108.036 182.791 107.855 183.857 107.905C184.924 107.954 185.99 108.233 186.991 108.732C187.993 109.231 188.908 109.939 189.681 110.816" stroke="#8767EB" stroke-width="5"/>
<path d="M170.659 101.819C172.389 100.001 174.447 98.5866 176.718 97.6587C178.988 96.7308 181.43 96.3062 183.906 96.4158C186.382 96.5254 188.843 97.1673 191.146 98.3108C193.449 99.4543 195.546 101.076 197.315 103.083" stroke="#8767EB" stroke-width="5"/>
<path d="M162.427 92.7606C165.104 89.9481 168.292 87.7659 171.81 86.3406C175.328 84.9153 179.113 84.2735 182.95 84.4599C186.787 84.6463 190.6 85.6574 194.17 87.4424C197.739 89.2274 200.991 91.7496 203.737 94.8661" stroke="#8767EB" stroke-width="5"/>
<path d="M154.531 83.7995C158.366 79.7713 162.905 76.6221 167.89 74.5326C172.875 72.4431 178.211 71.4534 183.593 71.6234C188.975 71.7934 194.299 73.1199 199.258 75.53C204.218 77.9402 208.714 81.3862 212.491 85.6718" stroke="#8767EB" stroke-width="5"/>
<path d="M146.58 73.908C151.562 68.6744 157.438 64.5609 163.871 61.8024C170.304 59.0438 177.169 57.6942 184.073 57.8307C190.978 57.9673 197.787 59.5873 204.112 62.5984C210.437 65.6095 216.154 69.9527 220.936 75.3801" stroke="#8767EB" stroke-width="5"/>
<circle cx="183.051" cy="182.747" r="177.198" stroke="#8767EB" stroke-width="10"/>
<path d="M120.829 110.556H245.159C255.1 110.556 263.159 118.615 263.159 128.556V331.817C263.159 336.718 261.227 340.507 258.002 342.243C246.355 348.51 223.803 355.988 196.918 358.215C170.09 360.437 139.379 357.395 111.165 343.113C106.01 340.503 102.829 334.886 102.829 328.594L102.829 128.556C102.829 118.615 110.888 110.556 120.829 110.556Z" fill="#E2D4FC" stroke="#8767EB" stroke-width="10"/>
</svg>
