<svg width="103" height="85" viewBox="0 0 103 85" fill="none" xmlns="http://www.w3.org/2000/svg">
<circle cx="63.4935" cy="42.6629" r="37.7331" stroke="white" stroke-width="3"/>
<path d="M49.3135 40.1188C49.7228 40.4965 50.0443 40.9492 50.2586 41.453C50.4729 41.957 50.5766 42.5044 50.5594 43.0653C50.5422 43.6263 50.4043 44.1893 50.1496 44.7211C49.8949 45.2529 49.5295 45.7409 49.0735 46.1556" stroke="white" stroke-width="3"/>
<path d="M53.7922 35.9545C54.7785 36.8645 55.5518 37.9528 56.067 39.1591C56.5822 40.3656 56.8299 41.6684 56.792 42.9943C56.7541 44.3204 56.4311 45.6433 55.838 46.8864C55.2449 48.1295 54.394 49.2664 53.3334 50.2309" stroke="white" stroke-width="3"/>
<path d="M58.6358 31.412C60.1696 32.8271 61.3691 34.5214 62.1647 36.4003C62.9604 38.2795 63.3374 40.3087 63.2694 42.3736C63.2015 44.4386 62.6898 46.4984 61.7595 48.434C60.829 50.3697 59.4992 52.141 57.8451 53.6451" stroke="white" stroke-width="3"/>
<path d="M63.4299 27.0527C65.6334 29.0857 67.3691 31.5056 68.5374 34.1751C69.7058 36.8447 70.2844 39.7126 70.2381 42.6157C70.1919 45.5188 69.5217 48.4001 68.264 51.0945C67.0063 53.789 65.1861 56.2429 62.9071 58.3153" stroke="white" stroke-width="3"/>
<path d="M68.7281 22.6556C71.5955 25.3011 73.8658 28.4382 75.4094 31.8878C76.9529 35.3374 77.7395 39.0319 77.7241 42.7606C77.7088 46.4892 76.8917 50.1788 75.3196 53.6188C73.7475 57.0588 71.4511 60.1818 68.5616 62.8093" stroke="white" stroke-width="3"/>
</svg>
